<svg version="1.0" xmlns="http://www.w3.org/2000/svg"
 width="500.000000pt" height="500.000000pt" viewBox="0 0 500.000000 500.000000"
 preserveAspectRatio="xMidYMid meet">

<g transform="translate(0.000000,500.000000) scale(0.100000,-0.100000)"
fill="#FFFFFF" stroke="none">
<path d="M2403 4750 c-65 -39 -88 -129 -51 -200 38 -73 133 -102 212 -65 68
33 98 144 56 213 -43 70 -147 95 -217 52z"/>
<path d="M2270 4425 c-391 -79 -726 -424 -796 -820 -8 -44 -14 -129 -14 -189
0 -195 40 -340 143 -521 68 -119 217 -270 332 -337 108 -62 172 -93 220 -107
73 -22 140 -39 177 -45 59 -11 252 -8 320 4 75 14 224 63 288 95 134 68 281
191 371 312 155 208 226 491 188 746 -64 430 -396 783 -811 862 -98 18 -326
19 -418 0z m411 -120 c168 -44 227 -72 348 -165 161 -123 254 -256 315 -448
58 -183 57 -378 -3 -555 -34 -100 -50 -131 -111 -222 -295 -435 -911 -527
-1315 -198 -107 88 -231 250 -268 353 -80 221 -86 420 -20 635 31 102 62 161
135 257 131 174 307 291 513 342 89 22 101 23 211 25 79 1 122 -4 195 -24z"/>
<path d="M2280 4196 c-83 -25 -207 -85 -255 -123 l-31 -25 78 -83 c89 -94 138
-153 138 -167 0 -5 13 -28 29 -51 16 -23 61 -96 101 -162 40 -66 79 -130 87
-142 22 -37 43 -29 43 15 0 61 -20 404 -25 437 -3 19 -2 25 4 17 4 -8 17 -12
27 -10 29 6 54 -29 49 -66 -14 -100 -17 -371 -5 -438 l14 -71 75 -59 c42 -33
89 -70 105 -84 15 -13 41 -32 57 -41 16 -10 29 -21 29 -26 0 -7 249 -257 256
-257 9 0 117 153 138 196 26 53 73 217 78 274 l3 35 -143 3 -143 3 3 47 3 47
138 3 137 3 0 37 c0 80 -64 276 -113 347 -11 17 -39 52 -61 79 l-40 48 -96
-100 -97 -100 -26 28 c-15 16 -27 35 -27 43 0 8 36 52 80 98 44 45 80 89 80
96 0 16 -120 87 -208 123 -73 30 -155 50 -202 50 l-30 0 0 -119 c0 -128 -4
-151 -27 -151 -8 0 -11 -5 -7 -11 4 -8 0 -8 -15 0 -16 9 -21 9 -21 -1 0 -6 -7
-3 -15 8 -11 14 -14 50 -15 147 l0 127 -37 -1 c-21 0 -72 -10 -113 -23z"/>
<path d="M1905 3972 c-20 -15 -82 -99 -113 -153 -40 -70 -89 -219 -98 -293
l-7 -55 139 -3 139 -3 3 -47 3 -48 -140 0 c-162 0 -151 9 -126 -108 29 -138
83 -254 163 -349 l44 -53 82 83 c85 86 142 137 152 137 4 0 3 -10 0 -22 -17
-56 -16 -58 10 -52 13 3 24 3 24 -1 0 -3 -37 -45 -82 -91 -46 -47 -86 -95 -91
-106 -8 -24 2 -33 92 -85 64 -37 71 -39 71 -17 0 9 16 45 36 80 39 70 92 191
129 294 13 36 38 98 54 138 40 95 38 164 -6 237 -16 28 -50 84 -74 125 -24 41
-57 96 -74 121 -16 25 -38 61 -47 78 -16 29 -21 31 -52 26 -32 -6 -38 -3 -90
49 -30 31 -60 56 -66 56 -5 0 -10 6 -10 13 0 12 -40 57 -51 57 -2 0 -8 -4 -14
-8z"/>
<path d="M2492 3790 c0 -19 2 -27 5 -17 2 9 2 25 0 35 -3 9 -5 1 -5 -18z"/>
<path d="M2472 3302 c-13 -2 -27 -13 -32 -25 -4 -12 -27 -71 -50 -132 -77
-202 -119 -304 -159 -384 -22 -45 -37 -82 -33 -85 21 -12 164 -46 195 -46 l36
0 3 138 3 137 41 3 c38 3 42 1 47 -25 3 -15 3 -78 0 -140 l-6 -113 45 0 c96 0
343 95 394 151 17 19 15 21 -53 92 -54 56 -74 84 -88 127 -20 63 -41 100 -56
100 -6 0 -7 -5 -3 -12 4 -7 3 -8 -5 -4 -6 4 -9 11 -6 15 4 8 -66 75 -137 132
-59 47 -113 75 -136 71z"/>
<path d="M2035 2370 c-184 -10 -363 -28 -615 -60 -224 -29 -590 -114 -813
-190 -132 -44 -349 -133 -380 -155 -21 -15 -21 -15 13 -9 19 3 69 14 110 25
144 35 246 58 350 78 58 12 128 25 155 31 61 13 383 67 445 75 47 6 141 18
283 35 293 36 1026 52 1372 30 528 -33 1038 -110 1569 -236 103 -25 190 -43
193 -40 10 10 -258 124 -382 163 -330 104 -616 167 -940 207 -349 44 -1008 66
-1360 46z"/>
<path d="M1965 2170 c-126 -10 -266 -23 -310 -29 -291 -40 -474 -74 -651 -121
-190 -50 -444 -149 -444 -172 0 -10 -2 -10 40 2 51 15 372 85 599 130 256 51
418 76 566 90 66 6 170 16 230 22 62 6 269 11 475 11 297 0 406 -4 585 -22
121 -12 243 -26 270 -30 28 -5 84 -15 125 -21 70 -11 425 -80 515 -100 22 -5
85 -19 140 -30 55 -12 138 -31 184 -41 46 -11 85 -18 87 -16 8 8 -97 58 -214
101 -304 112 -716 188 -1242 231 -244 20 -661 17 -955 -5z"/>
<path d="M2200 1989 c-486 -20 -910 -79 -1155 -160 -49 -17 -112 -41 -140 -54
-42 -20 -46 -23 -24 -24 14 -1 71 10 125 23 54 13 167 36 249 50 83 15 170 31
195 36 105 21 414 49 725 65 563 29 1124 -17 1700 -142 147 -32 204 -39 190
-25 -17 18 -249 95 -353 118 -171 37 -421 74 -602 89 -41 3 -95 8 -120 10 -25
2 -117 7 -205 10 -88 3 -207 7 -265 9 -58 2 -202 0 -320 -5z"/>
<path d="M1041 1666 c-28 -30 -51 -62 -51 -71 0 -14 -7 -16 -37 -12 -365 46
-415 46 -663 3 -209 -36 -215 -39 -234 -86 -9 -22 -16 -43 -16 -47 0 -6 161 1
314 13 45 4 77 3 75 -2 -3 -5 -29 -58 -60 -119 -30 -60 -81 -172 -113 -248
-32 -76 -66 -148 -75 -160 -16 -20 -41 -72 -41 -82 0 -14 79 -3 93 13 17 19
167 325 167 341 0 9 70 175 97 229 9 18 24 37 32 42 28 14 219 30 369 30 l148
0 13 38 c8 20 29 56 47 79 29 35 33 45 24 67 -5 14 -16 26 -23 26 -8 0 -37
-24 -66 -54z"/>
<path d="M3805 1648 c-30 -17 -138 -135 -217 -238 -22 -28 -38 -37 -80 -45
-44 -8 -55 -15 -71 -43 -27 -46 -11 -60 37 -32 31 19 36 20 36 6 0 -9 -11 -33
-24 -54 -12 -20 -40 -72 -61 -114 -29 -61 -48 -85 -84 -111 -66 -47 -129 -74
-192 -82 -75 -9 -101 11 -101 78 0 74 19 94 138 150 41 20 109 69 162 119 50
46 53 77 9 92 -34 12 -100 -18 -198 -91 -123 -91 -205 -209 -217 -309 -6 -61
11 -91 60 -105 87 -23 230 28 328 117 l25 23 0 -56 c0 -52 3 -58 27 -72 26
-15 31 -14 70 7 24 12 78 54 121 93 42 39 77 66 77 60 0 -5 -4 -13 -10 -16 -5
-3 -10 -28 -10 -54 0 -40 5 -52 31 -77 28 -27 36 -29 107 -29 97 0 165 31 246
110 100 98 135 183 121 293 -12 100 -77 137 -165 92 -99 -50 -179 -117 -261
-218 -32 -41 -72 -83 -87 -95 -73 -59 -169 -114 -179 -103 -3 2 13 42 35 88
22 46 50 106 63 133 50 109 74 137 134 156 73 22 131 65 114 85 -9 11 -7 20 7
40 54 76 104 161 104 176 0 33 -56 48 -95 26z m35 -58 c0 -17 -12 -49 -26 -71
-74 -118 -175 -182 -113 -72 92 161 139 210 139 143z m-520 -257 c0 -23 -55
-79 -121 -123 -42 -27 -79 -50 -83 -50 -30 0 55 95 128 142 58 37 76 45 76 31z
m164 -7 c-6 -16 -34 -30 -34 -18 0 10 22 32 32 32 4 0 5 -6 2 -14z m530 -31
c40 -17 51 -44 43 -106 -6 -49 -62 -145 -100 -173 -37 -27 -116 -27 -172 0
-35 17 -40 23 -37 49 9 78 89 182 174 224 51 25 47 25 92 6z"/>
<path d="M2790 1590 c-76 -14 -158 -47 -202 -81 -37 -30 -88 -114 -88 -147 0
-26 33 -75 91 -138 122 -131 133 -256 26 -305 -57 -25 -176 -26 -232 0 -112
50 -145 187 -71 286 34 46 38 55 25 55 -20 0 -102 -91 -132 -147 -17 -32 -29
-71 -31 -104 -4 -49 -1 -55 28 -83 61 -57 108 -71 241 -71 150 1 214 23 286
96 97 99 87 189 -37 364 -74 103 -81 150 -31 200 27 27 45 35 107 45 88 15
175 8 201 -16 28 -25 23 -64 -15 -137 -33 -64 -33 -65 -12 -71 38 -10 93 -6
105 7 6 8 18 41 26 75 14 53 14 65 2 95 -25 58 -68 80 -161 83 -45 2 -101 -1
-126 -6z"/>
<path d="M1969 1368 c-53 -31 -81 -73 -87 -129 -6 -61 12 -105 49 -121 16 -7
29 -18 29 -24 0 -19 -126 -133 -155 -140 -36 -9 -56 16 -49 60 8 43 44 155 61
189 18 36 9 87 -16 87 -25 0 -51 -32 -51 -61 0 -51 -181 -279 -222 -279 -46 0
-3 126 98 285 l44 69 -20 21 c-16 15 -24 17 -38 9 -18 -11 -79 -113 -133 -222
-18 -34 -47 -75 -65 -90 -19 -15 -50 -40 -70 -56 -71 -59 -68 -1 13 194 19 47
47 109 62 138 26 53 26 53 6 68 -62 47 -264 -78 -397 -245 -66 -82 -92 -129
-102 -182 -9 -52 0 -69 38 -69 47 0 124 50 199 129 36 39 69 71 72 71 2 0 -4
-23 -16 -52 -12 -30 -19 -68 -17 -92 3 -37 6 -41 32 -44 28 -3 102 38 165 92
l24 21 -6 -41 c-5 -28 -2 -47 9 -62 26 -37 64 -28 143 33 39 30 73 55 76 55 2
0 1 -15 -2 -34 -3 -18 0 -43 7 -56 10 -19 18 -22 52 -17 79 11 215 103 273
186 19 29 37 40 85 54 41 12 60 22 60 33 0 17 -28 16 -73 -2 -16 -6 -17 -3
-11 22 3 16 15 49 26 74 29 67 12 123 -43 143 -8 3 -31 -4 -50 -15z m59 -55
c8 -55 -38 -143 -74 -143 -35 0 -18 105 24 153 20 23 46 18 50 -10z m-698 -13
c0 -60 -115 -208 -243 -313 -49 -40 -62 -44 -70 -24 -7 19 49 126 100 191 66
86 213 187 213 146z"/>
<path d="M4944 1367 c-64 -28 -80 -41 -116 -96 -37 -60 -36 -100 7 -190 44
-92 46 -130 6 -154 -24 -14 -38 -15 -82 -7 -60 12 -66 15 -52 32 22 28 22 59
1 67 -17 6 -28 0 -55 -30 -43 -47 -41 -76 6 -103 49 -28 170 -27 228 2 96 50
107 110 38 217 -68 106 -71 148 -11 185 38 23 72 26 79 8 3 -7 6 11 6 40 1 28
0 52 -1 51 -2 0 -26 -10 -54 -22z"/>
<path d="M653 1315 c-10 -14 -30 -42 -45 -62 -16 -20 -28 -39 -28 -43 0 -5
-17 -30 -39 -57 -73 -93 -144 -216 -145 -253 -2 -66 35 -43 200 122 132 131
198 186 227 188 4 0 7 -15 7 -34 0 -72 73 -113 116 -64 l19 22 -24 -16 c-13
-9 -29 -14 -37 -11 -22 8 -27 58 -9 93 9 17 13 34 10 39 -2 5 4 20 16 32 l20
24 -7 -25 c-7 -28 -1 -24 40 34 28 37 28 38 5 25 -13 -7 -35 -14 -49 -14 -45
-1 -189 -96 -292 -194 -54 -51 -101 -91 -104 -88 -5 4 36 68 116 181 8 11 27
31 43 44 29 25 34 51 15 70 -18 18 -35 14 -55 -13z"/>
<path d="M4345 1318 c-64 -91 -191 -325 -198 -366 -9 -44 7 -82 33 -82 29 0
53 14 138 79 41 31 85 63 98 71 13 8 22 20 20 27 -3 6 2 14 10 17 27 10 25
-20 -6 -93 -25 -57 -29 -76 -19 -87 6 -8 16 -14 21 -14 5 0 45 29 89 65 44 36
83 65 88 65 5 0 11 9 14 21 5 19 4 19 -11 7 -21 -18 -111 -68 -123 -68 -8 0
35 67 84 132 15 19 27 38 27 43 0 4 16 39 36 77 40 79 42 121 7 126 -17 3 -28
-10 -59 -68 -20 -39 -51 -82 -68 -95 -17 -14 -60 -52 -96 -84 -89 -81 -194
-151 -207 -137 -3 2 9 31 27 63 18 32 42 76 53 98 11 22 26 47 34 56 18 22 83
130 83 139 0 6 -44 30 -55 30 -2 0 -11 -10 -20 -22z"/>
<path d="M3092 611 c-23 -14 -10 -46 18 -46 16 0 26 6 28 19 3 16 -12 36 -28
36 -3 0 -11 -4 -18 -9z"/>
<path d="M1904 547 c-137 -159 -336 -461 -317 -481 10 -10 42 14 57 42 22 41
111 143 158 180 39 31 98 44 98 22 0 -5 -17 -35 -37 -66 -21 -31 -46 -68 -55
-83 -10 -14 -18 -43 -18 -63 0 -37 1 -38 36 -38 24 0 62 14 110 41 84 46 91
70 11 34 -52 -23 -70 -28 -95 -26 -14 1 33 96 68 136 9 11 27 37 40 59 19 31
20 40 9 47 -26 17 -76 9 -135 -21 -32 -16 -60 -28 -61 -26 -5 5 53 79 121 154
68 75 76 91 52 111 -11 9 -20 4 -42 -22z"/>
<path d="M1400 524 c-74 -8 -145 -19 -157 -24 -28 -12 -32 -46 -5 -35 53 21
252 44 252 29 0 -3 -16 -33 -35 -65 -19 -33 -35 -62 -35 -64 0 -3 -33 -60 -74
-128 -88 -148 -92 -159 -51 -167 37 -8 55 -2 49 14 -5 13 167 359 194 389 17
19 47 17 104 -5 22 -8 33 -7 53 6 14 9 23 21 20 26 -6 10 -135 41 -162 39 -10
-1 -79 -8 -153 -15z m254 -14 c14 -5 26 -14 26 -20 0 -16 -33 -11 -65 10 -27
18 -28 20 -8 20 12 0 33 -4 47 -10z"/>
<path d="M2998 469 c-20 -11 -24 -44 -7 -54 5 -4 21 -4 35 -1 26 7 32 34 12
54 -14 14 -18 14 -40 1z"/>
<path d="M2296 361 c-15 -17 -26 -20 -57 -15 -70 12 -161 -64 -207 -173 -25
-60 -27 -73 -9 -97 19 -26 57 -12 114 40 26 24 52 44 56 44 5 0 6 -22 2 -49
-4 -31 -3 -51 4 -55 13 -8 89 24 152 65 25 16 49 29 52 29 18 0 4 -33 -25 -60
-26 -23 -30 -32 -19 -39 22 -15 119 14 161 48 21 17 41 31 44 31 3 0 6 -13 6
-30 0 -20 7 -33 21 -41 29 -15 101 -3 133 22 21 16 25 27 23 64 -1 25 -3 45
-4 45 -2 0 -11 -17 -22 -39 -20 -38 -69 -69 -90 -57 -5 4 -15 23 -22 44 -14
44 -28 64 -40 56 -5 -3 -9 -14 -9 -24 0 -20 -53 -70 -75 -70 -8 0 -26 16 -41
35 -14 19 -32 35 -38 35 -6 0 -42 -16 -79 -36 -88 -46 -102 -42 -93 31 7 61
14 81 57 149 32 52 35 81 5 47z m-69 -73 c-1 -23 -19 -49 -67 -99 -36 -38 -73
-69 -83 -69 -56 0 35 154 118 198 27 14 35 7 32 -30z"/>
<path d="M2790 358 c-11 -12 -29 -51 -40 -86 -23 -73 -24 -90 -5 -47 11 24 14
26 15 10 0 -16 70 123 70 140 0 12 -21 3 -40 -17z"/>
<path d="M3470 369 c-70 -28 -134 -86 -191 -174 -62 -94 -68 -118 -31 -123 17
-3 22 2 22 20 0 31 30 78 82 130 24 24 42 47 40 51 -1 5 2 6 7 3 8 -5 101 86
101 99 0 6 1 6 -30 -6z"/>
<path d="M3136 328 c-59 -44 -130 -146 -142 -206 -8 -37 16 -72 48 -72 10 0
57 38 104 85 48 47 90 85 95 85 10 0 89 74 89 84 0 20 -98 -56 -197 -153 -29
-28 -57 -51 -63 -51 -5 0 -10 14 -10 30 0 64 106 218 132 192 15 -15 55 -16
63 -2 3 6 1 10 -5 10 -6 0 -8 5 -4 12 5 7 0 9 -14 6 -15 -4 -19 -2 -15 8 10
26 -24 14 -81 -28z"/>
<path d="M2918 320 c-5 -17 -30 -69 -54 -116 -45 -89 -58 -154 -30 -154 17 0
111 79 134 112 9 13 -5 4 -32 -19 -69 -60 -80 -57 -50 15 8 20 26 48 39 62 26
27 55 97 48 118 -9 24 -44 13 -55 -18z"/>
<path d="M3653 343 c-90 -4 -101 -13 -67 -61 17 -25 79 -31 117 -11 41 21 76
82 45 77 -7 -1 -50 -4 -95 -5z"/>
<path d="M2457 283 c3 -32 7 -60 9 -62 9 -10 56 21 51 33 -7 17 11 36 33 36
12 -1 11 -4 -4 -15 -11 -8 -15 -15 -9 -15 5 0 20 9 32 19 19 16 21 23 11 40
-14 27 -38 27 -60 0 l-18 -20 -7 20 c-3 12 -15 21 -25 21 -17 0 -18 -6 -13
-57z"/>
<path d="M2608 333 c-10 -2 -18 -9 -18 -14 0 -13 13 -11 36 6 19 14 14 17 -18
8z"/>
<path d="M2671 326 c-16 -19 -7 -64 14 -73 25 -9 46 17 43 51 -3 35 -36 48
-57 22z"/>
<path d="M3640 165 c-6 -8 -9 -19 -5 -26 4 -6 -11 0 -33 12 l-41 24 -45 -23
c-42 -20 -46 -25 -46 -57 0 -28 4 -35 19 -35 12 0 21 9 25 25 8 31 40 65 61
65 25 0 18 -53 -14 -101 -17 -24 -28 -46 -25 -48 12 -13 134 139 134 168 0 15
-15 14 -30 -4z"/>
</g>
</svg>
