<svg version="1.0" xmlns="http://www.w3.org/2000/svg"
 width="910.000000pt" height="938.000000pt" viewBox="0 0 910.000000 938.000000"
 preserveAspectRatio="xMidYMid meet">
<g transform="translate(0.000000,938.000000) scale(0.100000,-0.100000)"
fill="#CA3B2B" stroke="none">
<path d="M4478 9250 c-145 -18 -236 -57 -349 -149 -91 -73 -928 -920 -1424
-1441 l-110 -115 170 -5 c94 -3 354 -6 579 -8 226 -1 411 -4 412 -5 1 -1 3
-431 5 -954 l4 -953 803 0 802 0 0 955 0 955 538 0 c295 0 560 3 589 6 65 8
71 -2 -118 192 -1494 1530 -1391 1432 -1576 1492 -104 33 -217 44 -325 30z"/>
<path d="M1630 6566 c-68 -72 -212 -221 -320 -331 -1073 -1099 -1121 -1151
-1165 -1250 -40 -90 -66 -216 -66 -319 0 -214 56 -365 197 -530 68 -80 745
-777 1216 -1251 l268 -270 0 2043 c0 1123 -1 2041 -2 2041 -2 -1 -59 -61 -128
-133z"/>
<path d="M7368 6679 c-2 -8 -4 -36 -3 -64 1 -27 3 -932 4 -2010 1 -1078 5
-1966 9 -1973 6 -8 32 13 88 70 43 46 282 290 530 543 642 655 851 874 912
952 44 56 98 176 123 271 32 119 29 290 -5 406 -15 49 -45 119 -67 157 -54 94
-94 136 -853 914 -698 714 -732 749 -738 734z"/>
<path d="M3770 3693 c-1 -5 0 -432 0 -950 0 -548 -3 -944 -8 -947 -5 -3 -273
-6 -594 -6 -322 -1 -588 -4 -592 -7 -10 -10 1366 -1410 1513 -1540 207 -182
468 -230 722 -132 159 61 217 113 849 760 211 217 496 508 632 647 136 139
248 257 248 262 0 6 -212 10 -587 10 l-588 0 2 940 c2 516 0 946 -3 955 -5 13
-92 15 -800 15 -437 0 -794 -3 -794 -7z"/>
</g>
</svg>
