<svg height="938pt" preserveAspectRatio="xMidYMid meet" viewBox="0 0 910 938" width="910pt" xmlns="http://www.w3.org/2000/svg"><g fill="#ca3b2b" transform="matrix(.1 0 0 -.1 0 938)"><path d="m4478 9250c-145-18-236-57-349-149-91-73-928-920-1424-1441l-110-115 170-5c94-3 354-6 579-8 226-1 411-4 412-5s3-431 5-954l4-953h803 802v955 955h538c295 0 560 3 589 6 65 8 71-2-118 192-1494 1530-1391 1432-1576 1492-104 33-217 44-325 30z"/><path d="m1630 6566c-68-72-212-221-320-331-1073-1099-1121-1151-1165-1250-40-90-66-216-66-319 0-214 56-365 197-530 68-80 745-777 1216-1251l268-270v2043c0 1123-1 2041-2 2041-2-1-59-61-128-133z"/><path d="m7368 6679c-2-8-4-36-3-64 1-27 3-932 4-2010s5-1966 9-1973c6-8 32 13 88 70 43 46 282 290 530 543 642 655 851 874 912 952 44 56 98 176 123 271 32 119 29 290-5 406-15 49-45 119-67 157-54 94-94 136-853 914-698 714-732 749-738 734z"/><path d="m3770 3693c-1-5 0-432 0-950 0-548-3-944-8-947s-273-6-594-6c-322-1-588-4-592-7-10-10 1366-1410 1513-1540 207-182 468-230 722-132 159 61 217 113 849 760 211 217 496 508 632 647s248 257 248 262c0 6-212 10-587 10h-588l2 940c2 516 0 946-3 955-5 13-92 15-800 15-437 0-794-3-794-7z"/></g></svg>