<svg height="50" viewBox="0 0 35 50" width="35" xmlns="http://www.w3.org/2000/svg"><g fill="none" fill-rule="evenodd"><path d="m1 0h35v50h-35z"/><path d="m33.4014085 28.5526316-16.3907043-3.7280702c-4.223783-.9579101-7.18506222-4.7805484-7.07176207-9.1287537.11330017-4.3482054 3.26959927-8.00999274 7.53748457-8.7446294 4.2678853-.73463665 8.4577597 1.66264432 10.0057416 5.724891 1.5479819 4.0622467.0225989 8.65718-3.6427317 10.9730535-.0699622.0524399-.1038001.1405282-.087039.226584.0167612.0860558.0811527.1548382.1656306.1769248l7.2915493 1.6578947c.173459.0404032.3544186-.0247628.4628169-.1666667 3.5320482-4.6864945 4.2078674-10.946041 1.7581453-16.28422547-2.4497222-5.33818451-7.6268405-8.8874098-13.4682862-9.23331834h-.6811267c-6.807659-.10695175-13.10152291 3.62496608-16.29787114 9.66374822-3.19634824 6.03878209-2.75671096 13.36711069 1.13843448 18.97660269l14.58309856 20.9210526c.0641171.0882309.1663245.1403986.2750705.1403986.1087459 0 .2109533-.0521677.2750704-.1403986l14.3560563-20.4824561c.0762274-.0947275.0965655-.2230245.0533986-.3368505-.0431668-.113826-.1433271-.196011-.262976-.2157811z" fill="#ffc627" fill-rule="nonzero"/></g></svg>